<?xml version="1.0" encoding="UTF-8" standalone="no"?>
<!-- Generator: Adobe Illustrator 26.0.3, SVG Export Plug-In . SVG Version: 6.00 Build 0)  -->

<svg
   version="1.0"
   id="katman_1"
   x="0px"
   y="0px"
   viewBox="0 0 600 450"
   style="enable-background:new 0 0 600 450;"
   xml:space="preserve"
   sodipodi:docname="csv.svg"
   inkscape:version="1.3 (0e150ed6c4, 2023-07-21)"
   xmlns:inkscape="http://www.inkscape.org/namespaces/inkscape"
   xmlns:sodipodi="http://sodipodi.sourceforge.net/DTD/sodipodi-0.dtd"
   xmlns="http://www.w3.org/2000/svg"
   xmlns:svg="http://www.w3.org/2000/svg"><defs
   id="defs3" /><sodipodi:namedview
   id="namedview3"
   pagecolor="#ffffff"
   bordercolor="#000000"
   borderopacity="0.25"
   inkscape:showpageshadow="2"
   inkscape:pageopacity="0.0"
   inkscape:pagecheckerboard="0"
   inkscape:deskcolor="#d1d1d1"
   inkscape:zoom="1.3435029"
   inkscape:cx="158.54078"
   inkscape:cy="256.41925"
   inkscape:window-width="1920"
   inkscape:window-height="1111"
   inkscape:window-x="-9"
   inkscape:window-y="1347"
   inkscape:window-maximized="1"
   inkscape:current-layer="katman_1" />&#10;<style
   type="text/css"
   id="style1">&#10;	.st0{fill:#FFFFFF;}&#10;	.st1{fill:#DFE1E6;}&#10;	.st2{fill:#0B8938;}&#10;</style>&#10;<path
   class="st0"
   d="m 51.932092,69.831129 c 0,-10.487635 9.927889,-19.008839 22.146828,-19.008839 h 464.70153 c 12.21894,0 22.14684,8.521204 22.14684,19.008839 V 379.38023 c 0,10.48762 -9.9279,19.00883 -22.14684,19.00883 H 74.07892 c -12.218939,0 -22.146828,-8.52121 -22.146828,-19.00883 z"
   id="path1"
   style="stroke-width:1.76878" />&#10;<path
   class="st1"
   d="m 341.17729,145.21101 c 0,-8.19347 7.82776,-14.91211 17.37381,-14.91211 h 150.44569 c 9.54605,0 17.37381,6.71864 17.37381,14.91211 0,8.19346 -7.82776,14.9121 -17.37381,14.9121 H 358.5511 c -9.54605,0 -17.37381,-6.71864 -17.37381,-14.9121 z m 0,79.4766 c 0,-8.19346 7.82776,-14.9121 17.37381,-14.9121 h 150.44569 c 9.54605,0 17.37381,6.71864 17.37381,14.9121 0,8.19347 -7.82776,14.9121 -17.37381,14.9121 0,0 0,0 0,0 H 358.5511 c -9.54605,0 -17.37381,-6.71863 -17.37381,-14.9121 z m 0,79.31275 c 0,-8.19347 7.82776,-14.91211 17.37381,-14.91211 h 150.44569 c 9.54605,0 17.37381,6.71864 17.37381,14.91211 0,8.19346 -7.82776,14.9121 -17.37381,14.9121 0,0 0,0 0,0 H 358.5511 c -9.54605,0 -17.37381,-6.55478 -17.37381,-14.9121 z"
   id="path2"
   style="stroke-width:1.76878" />&#10;<path
   class="st2"
   d="M 559.78175,38.532094 H 376.49766 c -0.76368,0 -1.33644,0 -2.10012,0.163869 V 1.1698946 L 15.466196,36.401793 V 411.82634 l 358.931344,36.21512 v -38.50928 c 0.76368,0 1.33644,0.16386 2.10012,0.16386 h 183.28409 c 8.97328,0 17.56473,-2.94964 24.05604,-8.35732 6.30039,-5.40769 9.92789,-12.61795 9.92789,-20.31981 V 67.20922 c 0,-7.701856 -3.6275,-14.912105 -9.92789,-20.319792 -6.49131,-5.243818 -15.08276,-8.357334 -24.05604,-8.357334 z M 117.41797,246.48223 c 6.10947,0 12.21895,-0.81935 17.94657,-2.45804 l 3.24565,15.23984 c -4.00934,1.6387 -12.7917,3.44125 -24.43788,3.11352 -31.88379,-0.65547 -47.921148,-18.84497 -47.921148,-42.44215 0,-28.18552 21.955906,-44.40858 50.021288,-45.06406 11.07341,-0.32773 19.66486,1.6387 23.48327,3.27739 l -4.39118,15.40372 c -5.72762,-1.96643 -11.8371,-3.11353 -18.13749,-2.94965 -16.80104,0.16387 -29.592744,9.50441 -29.592744,28.02165 0.19092,16.87853 11.073413,27.53004 29.783664,27.85778 z m 59.75825,17.20628 c -11.26433,-0.32775 -22.52867,-3.11353 -27.87446,-5.89931 l 4.58211,-16.05918 c 7.63684,3.44125 16.03736,5.40768 24.81972,5.73543 10.50065,0.16386 16.03736,-3.60513 16.03736,-9.34056 0,-5.57155 -4.77303,-8.68507 -16.80105,-12.45406 -16.41919,-5.07995 -27.11077,-13.10955 -27.11077,-25.56362 0,-14.74823 13.93723,-26.38295 37.42051,-26.87455 11.45525,-0.32775 20.0467,1.63868 26.15616,3.93286 l -5.15486,16.38693 c -6.68224,-2.62191 -13.93724,-4.09673 -21.38314,-3.93286 -9.73697,0.16386 -14.50999,4.09673 -14.50999,8.68507 0,5.57156 5.5367,8.02959 18.51932,12.12632 18.13749,5.73543 26.72893,13.9289 26.72893,26.54683 -0.19092,14.9121 -13.55539,27.36617 -41.42984,26.7107 z m 111.30691,1.14708 -29.01999,-0.65548 -34.17484,-90.29198 26.34708,-0.49161 13.17354,38.34542 c 3.62751,10.81537 7.06408,21.30301 9.73697,32.77386 h 0.57276 c 2.6729,-10.97925 6.30039,-21.95849 9.9279,-32.44612 l 14.31906,-39.65637 27.3017,-0.65548 z m 285.80861,116.01946 c 0,3.27739 -1.52737,6.3909 -4.20025,8.68507 -2.6729,2.29418 -6.49132,3.60513 -10.30974,3.60513 H 376.49766 c -0.76368,0 -1.33644,0 -2.10012,-0.16387 V 55.082893 c 0.76368,-0.16387 1.33644,-0.16387 2.10012,-0.16387 h 183.28409 c 3.81842,0 7.63684,1.310955 10.30974,3.605124 2.67288,2.29417 4.20025,5.407688 4.20025,8.685073 z"
   id="path3"
   style="stroke-width:1.76878" />&#10;</svg>
