<?xml version="1.0" encoding="UTF-8" standalone="no"?>
<svg
   version="1.1"
   x="0px"
   y="0px"
   viewBox="0 0 100 125"
   id="svg3"
   sodipodi:docname="voting.svg"
   inkscape:version="1.3 (0e150ed6c4, 2023-07-21)"
   xmlns:inkscape="http://www.inkscape.org/namespaces/inkscape"
   xmlns:sodipodi="http://sodipodi.sourceforge.net/DTD/sodipodi-0.dtd"
   xmlns="http://www.w3.org/2000/svg"
   xmlns:svg="http://www.w3.org/2000/svg">
  <defs
     id="defs3" />
  <sodipodi:namedview
     id="namedview3"
     pagecolor="#ffffff"
     bordercolor="#000000"
     borderopacity="0.25"
     inkscape:showpageshadow="2"
     inkscape:pageopacity="0.0"
     inkscape:pagecheckerboard="0"
     inkscape:deskcolor="#d1d1d1"
     inkscape:zoom="6.84"
     inkscape:cx="50"
     inkscape:cy="62.5"
     inkscape:window-width="1920"
     inkscape:window-height="1111"
     inkscape:window-x="-9"
     inkscape:window-y="1347"
     inkscape:window-maximized="1"
     inkscape:current-layer="svg3" />
  <g
     transform="matrix(1.3147336,0,0,1.3226579,-15.809779,-1263.6623)"
     id="g2">
    <g
       transform="translate(14,961.34089)"
       id="g1">
      <path
         d="m 45.070866,4.4645668 c -6.661417,2.6929134 -13.641732,6.2362202 -21.366142,9.8858262 -0.389763,0.177166 -0.779527,0.496063 -1.062992,0.850394 -2.586614,3.224409 -3.791338,7.582677 -4.712598,12.153543 -0.850394,4.251969 -1.311024,8.574803 -1.771654,12.366142 L 0.67322835,59.20866 c -0.95669292,1.169292 -0.81496063,3.047244 0.28346456,4.03937 L 14.952756,76.039369 H 0 v 5.988188 H 61.015748 V 76.039369 H 35.255906 L 56.267717,52.05118 c 0.992126,-1.133858 0.921259,-3.047244 -0.141733,-4.145669 l -5.279527,-5.279528 c 0.81496,-0.744094 1.559055,-1.523622 2.267716,-2.338582 2.622047,-2.976378 4.322835,-6.696851 4.712599,-11.338583 l 12.57874,-6.23622 c 0.956693,-0.531496 1.559055,-1.559055 1.559055,-2.65748 L 72,3.047244 C 72,1.5590551 70.688976,0.21259842 69.23622,0.07086614 61.051181,-0.3543307 52.15748,1.7007874 45.070866,4.4645668 Z m -14.77559,27.1062982 5.598425,5.633859 c -1.736221,1.948819 -3.543307,3.897637 -4.889764,5.669291 -2.267717,2.763779 -2.976378,6.555118 -1.133858,9.283464 4.251968,3.507874 9.035433,1.169292 12.11811,-1.877952 C 43.440945,49.003936 45,47.692912 46.311024,46.594487 l 3.57874,3.614173 -22.606299,25.830709 H 23.917323 L 7.0866142,60.696849 C 14.846457,50.952755 22.606299,41.350393 30.295276,31.570865 Z"
         fill="#000000"
         fill-opacity="1"
         fill-rule="nonzero"
         stroke="none"
         id="path1" />
    </g>
  </g>
</svg>
